<mxfile host="app.diagrams.net" modified="2024-04-19T23:56:18.971Z" agent="Mozilla/5.0 (Macintosh; Intel Mac OS X 10_15_7) AppleWebKit/605.1.15 (KHTML, like Gecko) Version/17.1 Safari/605.1.15" version="24.2.7" etag="IqPct1g4nJ561ap0oKa6" type="github">
  <diagram name="Page-1" id="D_ZD55qAnfDlWgekulu1">
    <mxGraphModel>
      <root>
        <mxCell id="0" />
        <mxCell id="1" parent="0" />
      </root>
    </mxGraphModel>
  </diagram>
</mxfile>
